<svg id="Layer_1" data-name="Layer 1" xmlns="http://www.w3.org/2000/svg" viewBox="0 0 87.28 58.51"><defs><style>.cls-1{fill:#0e2819;}</style></defs><path id="Icon_awesome-behance" data-name="Icon awesome-behance" class="cls-1" d="M297.32,392.65c4.82-2.47,7.33-6.19,7.33-12,0-11.44-8-14.23-17.17-14.23H262.16v57.42h26c9.75,0,18.92-5,18.92-16.67,0-7.21-3.2-12.54-9.8-14.53ZM274,376.23H285c4.26,0,8.09,1.28,8.09,6.56,0,4.88-3,6.84-7.2,6.84H274Zm12.63,37.87H274V398.28h12.87c5.2,0,8.49,2.32,8.49,8.2s-3.93,7.62-8.73,7.62Zm54.32-39H319.14v-5.66h21.77v5.66Zm8.53,28.56c0-12.3-6.73-22.55-18.92-22.55-11.85,0-19.9,9.53-19.9,22,0,12.95,7.62,21.83,19.9,21.83,9.28,0,15.3-4.48,18.2-14h-9.43c-1,3.55-5.2,5.43-8.44,5.43-6.26,0-9.55-3.92-9.55-10.58h28.05c0-.68.09-1.41.09-2.14Zm-28.12-5.05c.34-5.46,3.74-8.88,8.86-8.88,5.37,0,8.06,3.37,8.52,8.88Z" transform="translate(-262.16 -366.43)"/></svg>