<svg id="Layer_1" data-name="Layer 1" xmlns="http://www.w3.org/2000/svg" viewBox="0 0 75.51 69.95"><defs><style>.cls-1{fill:#0e2819;}</style></defs><path id="Icon_awesome-instagram" data-name="Icon awesome-instagram" class="cls-1" d="M305.81,377.75c-10.71,0-19.36,8-19.36,17.93s8.65,17.94,19.36,17.94,19.35-8,19.35-17.94S316.52,377.75,305.81,377.75Zm0,29.59c-6.92,0-12.58-5.23-12.58-11.66S298.87,384,305.81,384s12.58,5.23,12.58,11.66S312.73,407.34,305.81,407.34ZM330.47,377a4.53,4.53,0,1,1-4.18-4.18A4.52,4.52,0,0,1,330.47,377Zm12.82,4.25c-.29-5.6-1.67-10.57-6.1-14.66s-9.77-5.37-15.82-5.65c-6.23-.33-24.91-.33-31.14,0-6,.27-11.39,1.55-15.82,5.64s-5.79,9.05-6.1,14.65c-.35,5.78-.35,23.09,0,28.86.29,5.6,1.67,10.57,6.1,14.66s9.77,5.37,15.82,5.65c6.23.33,24.91.33,31.14,0,6.05-.26,11.4-1.54,15.82-5.65s5.8-9.05,6.1-14.66c.36-5.77.36-23.07,0-28.84Zm-8.05,35a12.35,12.35,0,0,1-7.18,6.65c-5,1.83-16.76,1.4-22.25,1.4s-17.3.41-22.25-1.4a12.32,12.32,0,0,1-7.18-6.65c-2-4.6-1.52-15.53-1.52-20.62s-.43-16,1.52-20.62a12.33,12.33,0,0,1,7.17-6.65c5-1.82,16.76-1.4,22.25-1.4s17.3-.4,22.25,1.4a12.32,12.32,0,0,1,7.18,6.65c2,4.61,1.52,15.53,1.52,20.62S337.21,411.71,335.24,416.3Z" transform="translate(-268.05 -360.71)"/></svg>