<svg id="Layer_1" data-name="Layer 1" xmlns="http://www.w3.org/2000/svg" viewBox="0 0 68.15 56.41"><defs><style>.cls-1{fill:#0e2819;}</style></defs><path id="Icon_awesome-twitter" data-name="Icon awesome-twitter" class="cls-1" d="M332.87,381.53c0,.61,0,1.23,0,1.85,0,18.81-14.05,40.5-39.74,40.5a39,39,0,0,1-21.44-6.39,29.15,29.15,0,0,0,3.37.18,27.63,27.63,0,0,0,17.34-6.09,14,14,0,0,1-13.06-9.87,16.69,16.69,0,0,0,2.64.22,14.61,14.61,0,0,0,3.67-.48,14.18,14.18,0,0,1-11.2-14v-.18a13.91,13.91,0,0,0,6.32,1.81,14.44,14.44,0,0,1-4.33-19,39.49,39.49,0,0,0,28.8,14.9,16.35,16.35,0,0,1-.34-3.27,14.1,14.1,0,0,1,14-14.23h0a13.81,13.81,0,0,1,10.21,4.5,27.23,27.23,0,0,0,8.86-3.44,14.1,14.1,0,0,1-6.14,7.84,27.5,27.5,0,0,0,8.05-2.2,30.46,30.46,0,0,1-7,7.36Z" transform="translate(-271.73 -367.47)"/></svg>